<?xml version="1.0" encoding="UTF-8"?>
<svg version="1.2" xmlns="http://www.w3.org/2000/svg" viewBox="0 0 512 512" preserveAspectRatio="xMidYMid meet" baseProfile="tiny-ps"><title>logo</title><g transform="translate(0.000000,512.000000) scale(0.100000,-0.100000)" fill="#000000"><path d="M913 3420c-193-98-120-381 98-380 40 0 104 28 136 59 65 62 77 167 27 247-52 85-173 119-261 74zM3280 2555v-825h175 175v252 251l96-134c96-133 219-303 252-347 17-23 18-23 225-20l209 3-233 309c-127 171-232 315-233 322-1 12 160 215 357 450 42 51 77 95 77 98 0 4-91 6-202 6h-203l-125-157c-69-86-145-184-170-217l-45-60-3 447-2 447h-175-175v-825z"/><path d="M1835 2926c-84-27-148-79-177-142-20-43-28-26-28 56v80h-160-160v-595-595h175 174l3 363 3 364 30 48c40 66 103 98 188 99 34 0 74-3 90-7l27-8-2 173-3 173-60 2c-33 1-78-4-100-11zM2615 2926c-58-18-83-33-137-84l-48-45v62 61h-165-165v-595-595h175 175v363c0 230 4 377 11 402 24 88 86 135 177 135 63 0 109-30 140-90 22-44 22-50 22-427v-383h176 175l-3 443c-4 487-4 487-70 597-66 110-189 171-342 169-44 0-99-6-121-13zM830 2325v-595h175 175l-2 593-3 592-172 3-173 2v-595z"/></g></svg>